<?xml version="1.0" encoding="utf-8"?>
<!-- Generator: Adobe Illustrator 25.4.1, SVG Export Plug-In . SVG Version: 6.00 Build 0)  -->
<svg version="1.1" id="Слой_1" xmlns="http://www.w3.org/2000/svg" xmlns:xlink="http://www.w3.org/1999/xlink" x="0px" y="0px"
	 viewBox="0 0 24 24" style="enable-background:new 0 0 24 24;" xml:space="preserve">
<path d="M22.6,10.5H5.5L9,7c0.6-0.6,0.6-1.4,0-2l0,0C8.4,4.4,7.6,4.4,7,5l-6,6c-0.6,0.6-0.6,1.4,0,2l6,6c0.6,0.6,1.4,0.6,2,0l0,0
	c0.6-0.6,0.6-1.4,0-2l-3.5-3.5h17.1c0.8,0,1.4-0.6,1.4-1.4v-0.2C24,11.1,23.4,10.5,22.6,10.5z"/>
</svg>
