<?xml version="1.0" encoding="utf-8"?>
<!-- Generator: Adobe Illustrator 25.4.1, SVG Export Plug-In . SVG Version: 6.00 Build 0)  -->
<svg version="1.1" id="Слой_1" xmlns="http://www.w3.org/2000/svg" xmlns:xlink="http://www.w3.org/1999/xlink" x="0px" y="0px"
	 viewBox="0 0 24 24" style="enable-background:new 0 0 24 24;" xml:space="preserve">
<path d="M21,4L21,4c0,1.1-0.9,2-2,2h0c-1.1,0-2-0.9-2-2v0c0-0.6-0.4-1-1-1H8C7.4,3,7,3.4,7,4v0c0,1.1-0.9,2-2,2h0C3.9,6,3,5.1,3,4v0
	c0-0.6-0.4-1-1-1h0C0.9,3,0,3.9,0,5v13.5c0,2,1.6,3.5,3.5,3.5h16.9c2,0,3.5-1.6,3.5-3.5V5c0-1.1-0.9-2-2-2h0C21.4,3,21,3.4,21,4z
	 M19.8,20H4.2C3,20,2,19,2,17.8V9.2C2,8,3,7,4.2,7h15.6C21,7,22,8,22,9.2v8.6C22,19,21,20,19.8,20z"/>
<path d="M5,5L5,5C4.4,5,4,4.6,4,4V2c0-0.6,0.4-1,1-1h0c0.6,0,1,0.4,1,1v2C6,4.6,5.6,5,5,5z"/>
<path d="M19,5L19,5c-0.6,0-1-0.4-1-1V2c0-0.6,0.4-1,1-1h0c0.6,0,1,0.4,1,1v2C20,4.6,19.6,5,19,5z"/>
<path d="M19.5,11h-12C7.2,11,7,10.8,7,10.5v0C7,10.2,7.2,10,7.5,10h12c0.3,0,0.5,0.2,0.5,0.5v0C20,10.8,19.8,11,19.5,11z"/>
<path d="M19.5,14h-15C4.2,14,4,13.8,4,13.5v0C4,13.2,4.2,13,4.5,13h15c0.3,0,0.5,0.2,0.5,0.5v0C20,13.8,19.8,14,19.5,14z"/>
<path d="M11.5,17h-7C4.2,17,4,16.8,4,16.5l0,0C4,16.2,4.2,16,4.5,16h7c0.3,0,0.5,0.2,0.5,0.5l0,0C12,16.8,11.8,17,11.5,17z"/>
</svg>
