<?xml version="1.0" encoding="utf-8"?>
<!-- Generator: Adobe Illustrator 25.4.1, SVG Export Plug-In . SVG Version: 6.00 Build 0)  -->
<svg version="1.1" id="Слой_1" xmlns="http://www.w3.org/2000/svg" xmlns:xlink="http://www.w3.org/1999/xlink" x="0px" y="0px"
	 viewBox="0 0 24 24" style="enable-background:new 0 0 24 24;" xml:space="preserve">
<path d="M23.3,8.4l-8.9-6.7c-1.4-1-3.3-1-4.7,0L0.7,8.4C0.3,8.8,0.2,9.3,0.4,9.8l0,0c0.3,0.6,1.1,0.8,1.6,0.4l0,0
	c0.8-0.6,1.9,0,1.9,1v8.7C4,21.6,5.4,23,7.1,23h9.9c1.7,0,3.1-1.4,3.1-3.1v-8.7c0-1,1.1-1.6,1.9-1l0,0c0.6,0.4,1.3,0.2,1.6-0.4l0,0
	C23.8,9.3,23.7,8.8,23.3,8.4z M16.8,21H7.2C6.5,21,6,20.5,6,19.8V8c0-0.4,0.2-0.8,0.5-1l4.8-3.5c0.4-0.3,1-0.3,1.4,0L17.5,7
	C17.8,7.2,18,7.6,18,8v11.8C18,20.5,17.5,21,16.8,21z"/>
</svg>
