<?xml version="1.0" encoding="utf-8"?>
<!-- Generator: Adobe Illustrator 25.4.1, SVG Export Plug-In . SVG Version: 6.00 Build 0)  -->
<svg version="1.1" id="Слой_1" xmlns="http://www.w3.org/2000/svg" xmlns:xlink="http://www.w3.org/1999/xlink" x="0px" y="0px"
	 viewBox="0 0 24 24" style="enable-background:new 0 0 24 24;" xml:space="preserve">
<path d="M8,20L8,20c-1.1,0-2-0.9-2-2V7c0-1.1,0.9-2,2-2h0c1.1,0,2,0.9,2,2v11C10,19.1,9.1,20,8,20z"/>
<path d="M16,20L16,20c-1.1,0-2-0.9-2-2V7c0-1.1,0.9-2,2-2h0c1.1,0,2,0.9,2,2v11C18,19.1,17.1,20,16,20z"/>
</svg>
