<?xml version="1.0" encoding="utf-8"?>
<!-- Generator: Adobe Illustrator 25.4.1, SVG Export Plug-In . SVG Version: 6.00 Build 0)  -->
<svg version="1.1" id="Слой_1" xmlns="http://www.w3.org/2000/svg" xmlns:xlink="http://www.w3.org/1999/xlink" x="0px" y="0px"
	 viewBox="0 0 24 24" style="enable-background:new 0 0 24 24;" xml:space="preserve">
<path d="M21.8,0.8l1.5,1.5c0.4,0.4,0.4,1.1,0,1.5L12.5,14.5c-0.3,0.3-0.7,0.5-1.2,0.6l-2.7,0.7c-0.3,0.1-0.6-0.2-0.5-0.5l0.7-2.7
	c0.1-0.5,0.3-0.9,0.6-1.2L20.2,0.8C20.7,0.3,21.3,0.3,21.8,0.8z"/>
<path d="M19,13.8v4.6c0,1.4-1.2,2.6-2.6,2.6H5.6C4.2,21,3,19.8,3,18.4V7.6C3,6.2,4.2,5,5.6,5h4.6c0.4,0,0.7-0.2,1-0.4l2-2
	C13.4,2.4,13.3,2,13,2H4.9C2.2,2,0,4.2,0,6.9v12.2C0,21.8,2.2,24,4.9,24h12.2c2.7,0,4.9-2.2,4.9-4.9V11c0-0.3-0.4-0.4-0.6-0.2l-2,2
	C19.2,13.1,19,13.5,19,13.8z"/>
</svg>
