<?xml version="1.0" encoding="utf-8"?>
<!-- Generator: Adobe Illustrator 25.4.1, SVG Export Plug-In . SVG Version: 6.00 Build 0)  -->
<svg version="1.1" id="Слой_1" xmlns="http://www.w3.org/2000/svg" xmlns:xlink="http://www.w3.org/1999/xlink" x="0px" y="0px"
	 viewBox="0 0 24 24" style="enable-background:new 0 0 24 24;" xml:space="preserve">
<path d="M12,24L12,24c-1.1,0-2-0.9-2-2V2c0-1.1,0.9-2,2-2h0c1.1,0,2,0.9,2,2v20C14,23.1,13.1,24,12,24z"/>
<path d="M0,12L0,12c0-1.1,0.9-2,2-2h20c1.1,0,2,0.9,2,2v0c0,1.1-0.9,2-2,2H2C0.9,14,0,13.1,0,12z"/>
</svg>
