<?xml version="1.0" encoding="utf-8"?>
<!-- Generator: Adobe Illustrator 25.4.1, SVG Export Plug-In . SVG Version: 6.00 Build 0)  -->
<svg version="1.1" id="Слой_1" xmlns="http://www.w3.org/2000/svg" xmlns:xlink="http://www.w3.org/1999/xlink" x="0px" y="0px"
	 viewBox="0 0 24 24" style="enable-background:new 0 0 24 24;" xml:space="preserve">
<path d="M8,13H6v10c0,0.6,0.4,1,1,1h0c0.6,0,1-0.4,1-1V13z"/>
<path d="M4,11h2v2H4c-0.6,0-1-0.4-1-1v0C3,11.4,3.4,11,4,11z"/>
<path d="M10,18H4c-0.6,0-1-0.4-1-1v0c0-0.6,0.4-1,1-1h6c0.6,0,1,0.4,1,1v0C11,17.6,10.6,18,10,18z"/>
<path d="M6,1.5V13h7.5c3.6,0,6.5-2.9,6.5-6.5v0C20,2.9,17.1,0,13.5,0h-6C6.7,0,6,0.7,6,1.5z M13.5,11H8V2h5.5C16,2,18,4,18,6.5v0
	C18,9,16,11,13.5,11z"/>
</svg>
