<?xml version="1.0" encoding="utf-8"?>
<!-- Generator: Adobe Illustrator 25.4.1, SVG Export Plug-In . SVG Version: 6.00 Build 0)  -->
<svg version="1.1" id="Слой_1" xmlns="http://www.w3.org/2000/svg" xmlns:xlink="http://www.w3.org/1999/xlink" x="0px" y="0px"
	 viewBox="0 0 24 24" style="enable-background:new 0 0 24 24;" xml:space="preserve">
<path d="M13,2.1C8.4,1.6,3.9,4.5,2.5,9c-1,3-0.4,6,1.1,8.4l2.5-1.6c-1.2-1.9-1.5-4.3-0.5-6.6C6.7,6.6,9.3,4.9,12.1,5
	c4.6,0.1,7.7,4.3,6.7,8.5c-0.3,1.5-1.1,2.7-2.1,3.7c-0.5,0.5-0.6,1.3-0.2,1.9l0,0c0.5,0.8,1.6,0.9,2.3,0.3c1.4-1.3,2.5-3.1,3-5.2
	C23,8.4,19.1,2.7,13,2.1z"/>
<path d="M1.5,17.2L7,13.8c0.6-0.4,1.4,0.1,1.4,0.8l-0.1,6c0,0.7-0.7,1.1-1.3,0.8l-5.4-2.6C0.9,18.4,0.9,17.6,1.5,17.2z"/>
</svg>
