<?xml version="1.0" encoding="utf-8"?>
<!-- Generator: Adobe Illustrator 25.4.1, SVG Export Plug-In . SVG Version: 6.00 Build 0)  -->
<svg version="1.1" id="Слой_1" xmlns="http://www.w3.org/2000/svg" xmlns:xlink="http://www.w3.org/1999/xlink" x="0px" y="0px"
	 viewBox="0 0 24 24" style="enable-background:new 0 0 24 24;" xml:space="preserve">
<path d="M17,2L17,2c0-1.1-0.9-2-2-2H9C7.9,0,7,0.9,7,2v0h0C4.8,2,3,3.8,3,6v14c0,2.2,1.8,4,4,4h10c2.2,0,4-1.8,4-4V6
	C21,3.8,19.2,2,17,2L17,2z M10,2h4c0.6,0,1,0.4,1,1v0c0,0.6-0.4,1-1,1h-4C9.4,4,9,3.6,9,3v0C9,2.4,9.4,2,10,2z M17,22H7
	c-1.1,0-2-0.9-2-2V6c0-1.1,0.9-2,2-2h0v0c0,1.1,0.9,2,2,2h6c1.1,0,2-0.9,2-2v0h0c1.1,0,2,0.9,2,2v14C19,21.1,18.1,22,17,22z"/>
<path d="M7.6,13.4L7.6,13.4c-0.3,0.3-0.3,0.8-0.1,1.1l2.2,2.2c0.7,0.7,1.8,0.6,2.4-0.1l4.4-5.1c0.2-0.3,0.2-0.7,0-1l0,0
	c-0.3-0.3-0.8-0.3-1,0l-4.1,4.1c-0.2,0.2-0.6,0.3-0.9,0.1l-2-1.3C8.2,13.1,7.8,13.2,7.6,13.4z"/>
</svg>
