<?xml version="1.0" encoding="utf-8"?>
<!-- Generator: Adobe Illustrator 25.4.1, SVG Export Plug-In . SVG Version: 6.00 Build 0)  -->
<svg version="1.1" id="Слой_1" xmlns="http://www.w3.org/2000/svg" xmlns:xlink="http://www.w3.org/1999/xlink" x="0px" y="0px"
	 viewBox="0 0 24 24" style="enable-background:new 0 0 24 24;" xml:space="preserve">
<path d="M1.5,10.5L1.5,10.5c0.8,0.8,2.1,0.8,2.9,0L7,8v14c0,1.1,0.9,2,2,2h0c1.1,0,2-0.9,2-2V0.9c0-0.7-0.9-1.1-1.4-0.6l-8,7.3
	C0.7,8.3,0.7,9.7,1.5,10.5z"/>
<path d="M22.5,13.5L22.5,13.5c-0.8-0.8-2.1-0.8-2.9,0L17,16.1v-14c0-1.1-0.9-2-2-2h0c-1.1,0-2,0.9-2,2v21.1c0,0.7,0.9,1.1,1.4,0.6
	l8-7.3C23.3,15.7,23.3,14.4,22.5,13.5z"/>
</svg>
