<?xml version="1.0" encoding="utf-8"?>
<!-- Generator: Adobe Illustrator 25.4.1, SVG Export Plug-In . SVG Version: 6.00 Build 0)  -->
<svg version="1.1" id="Слой_1" xmlns="http://www.w3.org/2000/svg" xmlns:xlink="http://www.w3.org/1999/xlink" x="0px" y="0px"
	 viewBox="0 0 24 24" style="enable-background:new 0 0 24 24;" xml:space="preserve">
<path d="M14,2h-4C9.4,2,9,1.6,9,1v0c0-0.6,0.4-1,1-1h4c0.6,0,1,0.4,1,1v0C15,1.6,14.6,2,14,2z"/>
<path d="M20,5H4C3.5,5,3,4.6,3,4v0c0-0.6,0.5-1,1-1h16c0.6,0,1,0.5,1,1v0C21,4.6,20.5,5,20,5z"/>
<path d="M17.9,6H6.1C5.5,6,5,6.5,5,7.1V20c0,2.2,1.8,4,4,4h6c2.2,0,4-1.8,4-4V7.1C19,6.5,18.5,6,17.9,6z M9,20.1
	C9,20.6,8.6,21,8.1,21H7.9C7.4,21,7,20.6,7,20.1V8.9C7,8.4,7.4,8,7.9,8h0.3C8.6,8,9,8.4,9,8.9V20.1z M13,20.1c0,0.5-0.4,0.9-0.9,0.9
	h-0.3c-0.5,0-0.9-0.4-0.9-0.9V8.9C11,8.4,11.4,8,11.9,8h0.3C12.6,8,13,8.4,13,8.9V20.1z M17,20.1c0,0.5-0.4,0.9-0.9,0.9h-0.3
	c-0.5,0-0.9-0.4-0.9-0.9V8.9C15,8.4,15.4,8,15.9,8h0.3C16.6,8,17,8.4,17,8.9V20.1z"/>
</svg>
