<?xml version="1.0" encoding="utf-8"?>
<!-- Generator: Adobe Illustrator 25.4.1, SVG Export Plug-In . SVG Version: 6.00 Build 0)  -->
<svg version="1.1" id="Слой_1" xmlns="http://www.w3.org/2000/svg" xmlns:xlink="http://www.w3.org/1999/xlink" x="0px" y="0px"
	 viewBox="0 0 24 24" style="enable-background:new 0 0 24 24;" xml:space="preserve">
<path d="M6,8h15V6H6C5.4,6,5,6.4,5,7v0C5,7.6,5.4,8,6,8z"/>
<circle cx="19.5" cy="13.5" r="0.5"/>
<path d="M22.6,11l-3,0c-1.3,0-2.5,0.9-2.6,2.2c-0.2,1.5,1,2.8,2.5,2.8h3.1c0.8,0,1.4-0.6,1.4-1.4v-2.3C24,11.6,23.4,11,22.6,11z
	 M23,14.6c0,0.2-0.2,0.4-0.4,0.4h-3.1c-0.8,0-1.5-0.7-1.5-1.5s0.7-1.5,1.5-1.5h3.1c0.2,0,0.4,0.2,0.4,0.4V14.6z"/>
<path d="M18.7,2H4.3C1.9,2,0,3.9,0,6.3v11.4C0,20.1,1.9,22,4.3,22h14.4c2.4,0,4.3-1.9,4.3-4.3V17h-1.5H21v0.5c0,1.4-1.1,2.5-2.5,2.5
	h-14C3.1,20,2,18.9,2,17.5v-11C2,5.1,3.1,4,4.5,4h14C19.9,4,21,5.1,21,6.5V8v2h0.5H23V8V6.3C23,3.9,21.1,2,18.7,2z"/>
</svg>
